<svg width="41" height="23" viewBox="0 0 41 23" fill="none" xmlns="http://www.w3.org/2000/svg">
<path d="M19.552 22H13.504L7.52 12.752L5.6 14.608V22H0.736V0.751999H5.6V8.624L12.928 0.751999H19.328L11.008 9.072L19.552 22ZM28.9863 15.952L29.0183 14.608C28.7196 14.8853 27.9516 15.152 26.7143 15.408C25.6263 15.6427 24.8796 15.9307 24.4743 16.272C24.0689 16.592 23.8663 17.04 23.8663 17.616C23.8663 18.6187 24.4316 19.12 25.5623 19.12C26.6289 19.12 27.4609 18.8107 28.0583 18.192C28.6556 17.5733 28.9649 16.8267 28.9863 15.952ZM33.6263 22H29.5623C29.3916 21.5947 29.2849 21.1467 29.2423 20.656C28.3249 21.8293 26.7569 22.416 24.5383 22.416C21.0609 22.416 19.3223 20.9013 19.3223 17.872C19.3223 16.8907 19.4929 16.0693 19.8343 15.408C20.1756 14.7253 20.7089 14.192 21.4343 13.808C22.1809 13.424 22.9276 13.136 23.6743 12.944C24.4209 12.752 25.4129 12.56 26.6503 12.368C27.5463 12.24 28.1543 12.0693 28.4743 11.856C28.7943 11.6213 28.9543 11.2587 28.9543 10.768C28.9543 10.3413 28.7303 10.0107 28.2823 9.776C27.8556 9.52 27.3009 9.392 26.6183 9.392C25.0609 9.392 24.1969 10.0533 24.0263 11.376H19.8343C19.8983 7.68533 22.2343 5.84 26.8423 5.84C29.2743 5.84 31.0129 6.36267 32.0583 7.408C33.1036 8.432 33.6263 9.97867 33.6263 12.048V22ZM40.1305 22H35.4905V6.256H40.1305V22ZM40.1305 4.368H35.4905V0.495998H40.1305V4.368Z" fill="#151515"/>
</svg>
