<svg width="131" height="30" viewBox="0 0 131 30" fill="none" xmlns="http://www.w3.org/2000/svg">
<path d="M19.552 22H13.504L7.52 12.752L5.6 14.608V22H0.736V0.751999H5.6V8.624L12.928 0.751999H19.328L11.008 9.072L19.552 22ZM28.9863 15.952L29.0183 14.608C28.7196 14.8853 27.9516 15.152 26.7143 15.408C25.6263 15.6427 24.8796 15.9307 24.4743 16.272C24.0689 16.592 23.8663 17.04 23.8663 17.616C23.8663 18.6187 24.4316 19.12 25.5623 19.12C26.6289 19.12 27.4609 18.8107 28.0583 18.192C28.6556 17.5733 28.9649 16.8267 28.9863 15.952ZM33.6263 22H29.5623C29.3916 21.5947 29.2849 21.1467 29.2423 20.656C28.3249 21.8293 26.7569 22.416 24.5383 22.416C21.0609 22.416 19.3223 20.9013 19.3223 17.872C19.3223 16.8907 19.4929 16.0693 19.8343 15.408C20.1756 14.7253 20.7089 14.192 21.4343 13.808C22.1809 13.424 22.9276 13.136 23.6743 12.944C24.4209 12.752 25.4129 12.56 26.6503 12.368C27.5463 12.24 28.1543 12.0693 28.4743 11.856C28.7943 11.6213 28.9543 11.2587 28.9543 10.768C28.9543 10.3413 28.7303 10.0107 28.2823 9.776C27.8556 9.52 27.3009 9.392 26.6183 9.392C25.0609 9.392 24.1969 10.0533 24.0263 11.376H19.8343C19.8983 7.68533 22.2343 5.84 26.8423 5.84C29.2743 5.84 31.0129 6.36267 32.0583 7.408C33.1036 8.432 33.6263 9.97867 33.6263 12.048V22ZM40.1305 22H35.4905V6.256H40.1305V22ZM40.1305 4.368H35.4905V0.495998H40.1305V4.368ZM50.693 12.688H45.349V17.968H50.661C51.557 17.968 52.2503 17.7227 52.741 17.232C53.253 16.7413 53.509 16.0693 53.509 15.216C53.509 13.5307 52.5703 12.688 50.693 12.688ZM50.373 4.848H45.349V9.04H50.501C52.101 9.04 52.901 8.336 52.901 6.928C52.901 5.54133 52.0583 4.848 50.373 4.848ZM50.341 22H40.581V0.751999H51.237C53.413 0.751999 55.0343 1.25333 56.101 2.256C57.189 3.23733 57.733 4.592 57.733 6.32C57.733 7.28 57.477 8.144 56.965 8.912C56.453 9.65867 55.7917 10.192 54.981 10.512C55.9837 10.8533 56.7943 11.4507 57.413 12.304C58.053 13.1573 58.373 14.288 58.373 15.696C58.373 17.68 57.7117 19.2267 56.389 20.336C55.0663 21.4453 53.0503 22 50.341 22ZM63.9108 22H59.2708V6.256H63.6228V7.696C64.2414 6.90667 64.8814 6.40533 65.5428 6.192C66.2254 5.95733 67.0574 5.84 68.0388 5.84H68.4868V10.576C68.1028 10.512 67.7188 10.48 67.3348 10.48C66.1614 10.48 65.2974 10.736 64.7428 11.248C64.1881 11.76 63.9108 12.6027 63.9108 13.776V22ZM79.248 22.512V20.176C78.9493 20.816 78.4267 21.3067 77.68 21.648C76.9547 21.9893 76.1547 22.16 75.28 22.16C73.5093 22.16 72.112 21.648 71.088 20.624C70.064 19.6 69.552 18.256 69.552 16.592V6.256H74.192V15.888C74.192 17.5733 74.9493 18.416 76.464 18.416C77.232 18.416 77.8827 18.1707 78.416 17.68C78.9707 17.1893 79.248 16.592 79.248 15.888V6.256H83.888V22.448C83.888 24.624 83.2267 26.3307 81.904 27.568C80.5813 28.8267 78.8107 29.456 76.592 29.456C74.2453 29.456 72.4853 28.88 71.312 27.728C70.16 26.576 69.584 24.9547 69.584 22.864H73.904C73.904 24.592 74.8213 25.456 76.656 25.456C77.424 25.456 78.0427 25.2 78.512 24.688C79.0027 24.1973 79.248 23.472 79.248 22.512ZM94.925 15.952L94.957 14.608C94.6583 14.8853 93.8903 15.152 92.653 15.408C91.565 15.6427 90.8183 15.9307 90.413 16.272C90.0077 16.592 89.805 17.04 89.805 17.616C89.805 18.6187 90.3703 19.12 91.501 19.12C92.5677 19.12 93.3997 18.8107 93.997 18.192C94.5943 17.5733 94.9037 16.8267 94.925 15.952ZM99.565 22H95.501C95.3303 21.5947 95.2237 21.1467 95.181 20.656C94.2637 21.8293 92.6957 22.416 90.477 22.416C86.9997 22.416 85.261 20.9013 85.261 17.872C85.261 16.8907 85.4317 16.0693 85.773 15.408C86.1143 14.7253 86.6477 14.192 87.373 13.808C88.1197 13.424 88.8663 13.136 89.613 12.944C90.3597 12.752 91.3517 12.56 92.589 12.368C93.485 12.24 94.093 12.0693 94.413 11.856C94.733 11.6213 94.893 11.2587 94.893 10.768C94.893 10.3413 94.669 10.0107 94.221 9.776C93.7943 9.52 93.2397 9.392 92.557 9.392C90.9997 9.392 90.1357 10.0533 89.965 11.376H85.773C85.837 7.68533 88.173 5.84 92.781 5.84C95.213 5.84 96.9517 6.36267 97.997 7.408C99.0423 8.432 99.565 9.97867 99.565 12.048V22ZM115.797 22H111.125V12.24C111.125 11.2587 110.933 10.576 110.549 10.192C110.187 9.808 109.579 9.616 108.725 9.616C106.891 9.616 105.973 10.576 105.973 12.496V22H101.333V6.256H105.749V8.24C106.645 6.64 108.224 5.84 110.485 5.84C112.043 5.84 113.312 6.29867 114.293 7.216C115.296 8.13333 115.797 9.34933 115.797 10.864V22ZM130.481 11.632V16.112C130.481 17.9467 129.947 19.4613 128.881 20.656C127.835 21.8293 126.214 22.416 124.017 22.416C121.798 22.416 120.155 21.8293 119.089 20.656C118.043 19.4827 117.521 17.9573 117.521 16.08V2H122.065V6.256H130.481V9.52H122.065V15.888C122.065 17.552 122.747 18.384 124.113 18.384C125.478 18.384 126.161 17.5627 126.161 15.92V11.632H130.481Z" fill="#1E1E1E"/>
</svg>
