<svg width="40" height="40" viewBox="0 0 40 40" fill="none" xmlns="http://www.w3.org/2000/svg">
<g clip-path="url(#clip0_151_18)">
<path fill-rule="evenodd" clip-rule="evenodd" d="M35.113 0C37.8102 0 40 2.18984 40 4.88703V35.113C40 37.8102 37.8102 40 35.113 40H4.88703C2.18984 40 0 37.8102 0 35.113V4.88703C0 2.18984 2.18977 0 4.88703 0L35.113 0ZM12.536 33.0686V15.4345H6.67352V33.0686H12.536ZM33.6719 33.0686V22.9562C33.6719 17.5395 30.7798 15.0198 26.9234 15.0198C23.8137 15.0198 22.4207 16.73 21.6408 17.9312V15.4345H15.7798C15.8575 17.0892 15.7798 33.0686 15.7798 33.0686H21.6407V23.2205C21.6407 22.6933 21.6787 22.1664 21.834 21.7896C22.257 20.7369 23.222 19.6463 24.8413 19.6463C26.9613 19.6463 27.8106 21.2641 27.8106 23.6336V33.0686H33.6719ZM9.64437 6.93141C7.63859 6.93141 6.32812 8.25008 6.32812 9.97844C6.32812 11.6705 7.59875 13.0255 9.5668 13.0255H9.60461C11.6488 13.0255 12.9212 11.6705 12.9212 9.97844C12.8833 8.2525 11.6523 6.93516 9.64437 6.93141Z" fill="#1E1E1E"/>
</g>
<defs>
<clipPath id="clip0_151_18">
<rect width="40" height="40" fill="white"/>
</clipPath>
</defs>
</svg>
