<svg width="40" height="40" viewBox="0 0 40 40" fill="none" xmlns="http://www.w3.org/2000/svg">
<g clip-path="url(#clip0_42_93)">
<path fill-rule="evenodd" clip-rule="evenodd" d="M35.113 0C37.8102 0 40 2.18984 40 4.88703V35.113C40 37.8102 37.8102 40 35.113 40H4.88703C2.18984 40 0 37.8102 0 35.113V4.88703C0 2.18984 2.18977 0 4.88703 0L35.113 0ZM9.60477 33.0686C11.2237 33.0686 12.536 31.7562 12.536 30.1373V18.3657C12.536 16.7468 11.2237 15.4345 9.60477 15.4345V15.4345C7.98588 15.4345 6.67352 16.7468 6.67352 18.3657V30.1373C6.67352 31.7562 7.98588 33.0686 9.60477 33.0686V33.0686ZM30.7413 33.0686C32.3598 33.0686 33.6719 31.7565 33.6719 30.138V22.9562C33.6719 17.5395 30.7798 15.0198 26.9234 15.0198C25.0033 15.0198 23.7377 15.6718 22.8668 16.4534C22.4441 16.8328 21.6408 16.573 21.6408 16.0049V16.0049C21.6408 15.6899 21.3854 15.4345 21.0703 15.4345H18.7791C17.1459 15.4345 15.8067 16.796 15.8114 18.4292C15.821 21.7359 15.8048 26.9069 15.7923 30.1359C15.786 31.756 17.0973 33.0686 18.7174 33.0686V33.0686C20.3319 33.0686 21.6407 31.7598 21.6407 30.1453V23.2205C21.6407 22.6933 21.6787 22.1664 21.834 21.7896C22.257 20.7369 23.222 19.6463 24.8413 19.6463C26.9612 19.6463 27.8106 21.2641 27.8106 23.6336V30.138C27.8106 31.7565 29.1227 33.0686 30.7413 33.0686V33.0686ZM9.64437 6.93141C7.63859 6.93141 6.32812 8.25008 6.32812 9.97844C6.32812 11.6705 7.59875 13.0255 9.5668 13.0255H9.60461C11.6488 13.0255 12.9212 11.6705 12.9212 9.97844C12.8833 8.2525 11.6523 6.93516 9.64437 6.93141Z" fill="#1D1D1D"/>
</g>
<defs>
<clipPath id="clip0_42_93">
<rect width="40" height="40" rx="6" fill="white"/>
</clipPath>
</defs>
</svg>
