<svg width="155" height="40" viewBox="0 0 155 40" fill="none" xmlns="http://www.w3.org/2000/svg">
<path d="M50.144 32V9.696H57.504C59.3173 9.696 60.7787 9.96267 61.888 10.496C62.9973 11.008 63.808 11.7547 64.32 12.736C64.8533 13.696 65.12 14.8373 65.12 16.16C65.12 18.208 64.5333 19.7973 63.36 20.928C62.208 22.0373 60.5547 22.656 58.4 22.784C57.9093 22.8053 57.408 22.816 56.896 22.816C56.384 22.816 55.9467 22.816 55.584 22.816H54.272V32H50.144ZM62.272 32L56.672 22.336L60.896 21.824L67.04 32H62.272ZM54.272 19.104H57.088C57.792 19.104 58.432 19.0293 59.008 18.88C59.6053 18.7093 60.0853 18.4213 60.448 18.016C60.8107 17.5893 60.992 16.992 60.992 16.224C60.992 15.4347 60.8107 14.8373 60.448 14.432C60.0853 14.0267 59.6053 13.76 59.008 13.632C58.432 13.4827 57.792 13.408 57.088 13.408H54.272V19.104ZM74.427 32.32C73.0617 32.32 71.8883 32.096 70.907 31.648C69.9257 31.2 69.115 30.6027 68.475 29.856C67.8563 29.088 67.3977 28.224 67.099 27.264C66.8003 26.2827 66.651 25.2587 66.651 24.192C66.651 23.168 66.8003 22.1653 67.099 21.184C67.3977 20.2027 67.8457 19.3173 68.443 18.528C69.0403 17.7387 69.8083 17.1093 70.747 16.64C71.707 16.1493 72.8483 15.904 74.171 15.904C75.4083 15.904 76.4857 16.1173 77.403 16.544C78.3203 16.9493 79.0777 17.5253 79.675 18.272C80.2723 18.9973 80.7203 19.8507 81.019 20.832C81.339 21.8133 81.499 22.8587 81.499 23.968C81.499 24.1173 81.4883 24.3307 81.467 24.608C81.467 24.864 81.4457 25.1413 81.403 25.44H70.619C70.7257 26.5707 71.1417 27.424 71.867 28C72.6137 28.576 73.5417 28.864 74.651 28.864C75.4617 28.864 76.251 28.7253 77.019 28.448C77.787 28.1493 78.4697 27.7333 79.067 27.2L81.051 29.888C80.3043 30.464 79.6003 30.9333 78.939 31.296C78.2777 31.6587 77.5843 31.9147 76.859 32.064C76.155 32.2347 75.3443 32.32 74.427 32.32ZM77.563 23.456C77.6057 23.2853 77.6377 23.1147 77.659 22.944C77.7017 22.7733 77.723 22.6133 77.723 22.464C77.723 22.016 77.6377 21.6 77.467 21.216C77.2963 20.8107 77.0617 20.4587 76.763 20.16C76.4643 19.8613 76.1017 19.6373 75.675 19.488C75.2697 19.3173 74.8003 19.232 74.267 19.232C73.4777 19.232 72.8163 19.392 72.283 19.712C71.7497 20.032 71.3443 20.448 71.067 20.96C70.811 21.4507 70.651 21.9627 70.587 22.496H78.907L77.563 23.456ZM88.7315 32.32C87.5582 32.32 86.5342 32.1493 85.6595 31.808C84.7848 31.4667 84.0382 31.04 83.4195 30.528C82.8222 30.016 82.3422 29.5253 81.9795 29.056L84.6995 26.688C85.0622 27.2853 85.5742 27.84 86.2355 28.352C86.9182 28.8427 87.7608 29.088 88.7635 29.088C89.5528 29.088 90.1608 28.9387 90.5875 28.64C91.0355 28.32 91.2595 27.9253 91.2595 27.456C91.2595 27.072 91.1208 26.7627 90.8435 26.528C90.5662 26.272 90.1928 26.0693 89.7235 25.92C89.2542 25.7493 88.7315 25.5893 88.1555 25.44C87.5582 25.2693 86.9395 25.0773 86.2995 24.864C85.6595 24.6507 85.0728 24.3733 84.5395 24.032C84.0062 23.6693 83.5688 23.2107 83.2275 22.656C82.9075 22.1013 82.7475 21.408 82.7475 20.576C82.7475 19.1893 83.2915 18.0693 84.3795 17.216C85.4675 16.3413 86.9075 15.904 88.6995 15.904C89.9582 15.904 91.0995 16.16 92.1235 16.672C93.1475 17.1627 93.9582 17.8773 94.5555 18.816L92.0915 20.768C91.7075 20.1493 91.1955 19.6907 90.5555 19.392C89.9368 19.072 89.2755 18.912 88.5715 18.912C87.9528 18.912 87.4408 19.0293 87.0355 19.264C86.6515 19.4987 86.4595 19.8187 86.4595 20.224C86.4595 20.5013 86.5448 20.736 86.7155 20.928C86.9075 21.12 87.2062 21.2907 87.6115 21.44C88.0382 21.568 88.5928 21.7173 89.2755 21.888C89.9155 22.0373 90.5768 22.2187 91.2595 22.432C91.9422 22.6453 92.5822 22.9333 93.1795 23.296C93.7768 23.6587 94.2568 24.1387 94.6195 24.736C94.9822 25.3333 95.1635 26.0907 95.1635 27.008C95.1635 28.0533 94.8968 28.9813 94.3635 29.792C93.8302 30.5813 93.0835 31.2 92.1235 31.648C91.1635 32.096 90.0328 32.32 88.7315 32.32ZM102.481 32.32C101.201 32.32 100.124 32.064 99.2493 31.552C98.3959 31.04 97.7559 30.3147 97.3293 29.376C96.9239 28.4373 96.7213 27.3387 96.7213 26.08V16.224H100.689V25.088C100.689 25.8133 100.775 26.464 100.945 27.04C101.116 27.5947 101.415 28.0427 101.841 28.384C102.289 28.704 102.897 28.864 103.665 28.864C104.604 28.864 105.308 28.5973 105.777 28.064C106.268 27.5307 106.599 26.7947 106.769 25.856C106.961 24.896 107.057 23.776 107.057 22.496V16.224H111.025V32H107.057V28.576L107.601 28.896C107.132 30.112 106.439 30.9867 105.521 31.52C104.604 32.0533 103.591 32.32 102.481 32.32ZM113.536 32V16.224H117.536V20.32L116.672 20.992C116.821 19.9893 117.077 19.1573 117.44 18.496C117.802 17.8347 118.229 17.3227 118.72 16.96C119.232 16.576 119.754 16.3093 120.288 16.16C120.842 15.9893 121.386 15.904 121.92 15.904C122.752 15.904 123.541 16.064 124.288 16.384C125.034 16.6827 125.685 17.2053 126.24 17.952C126.794 18.6987 127.178 19.7227 127.392 21.024L125.024 21.888C125.344 20.3947 125.802 19.2107 126.4 18.336C127.018 17.4613 127.722 16.8427 128.512 16.48C129.322 16.096 130.176 15.904 131.072 15.904C132.416 15.904 133.504 16.2027 134.336 16.8C135.168 17.3973 135.776 18.1653 136.16 19.104C136.565 20.0213 136.768 21.0027 136.768 22.048V32H132.8V23.008C132.8 22.2187 132.693 21.5573 132.48 21.024C132.288 20.4693 132 20.0533 131.616 19.776C131.232 19.4987 130.73 19.36 130.112 19.36C129.472 19.36 128.928 19.5307 128.48 19.872C128.032 20.2133 127.69 20.7253 127.456 21.408C127.242 22.0907 127.136 22.9653 127.136 24.032V32H123.168V22.944C123.168 21.7493 122.944 20.8533 122.496 20.256C122.069 19.6587 121.44 19.36 120.608 19.36C119.946 19.36 119.381 19.5307 118.912 19.872C118.464 20.2133 118.122 20.7253 117.888 21.408C117.653 22.0907 117.536 22.9653 117.536 24.032V32H113.536ZM146.105 32.32C144.739 32.32 143.566 32.096 142.585 31.648C141.603 31.2 140.793 30.6027 140.153 29.856C139.534 29.088 139.075 28.224 138.777 27.264C138.478 26.2827 138.329 25.2587 138.329 24.192C138.329 23.168 138.478 22.1653 138.777 21.184C139.075 20.2027 139.523 19.3173 140.121 18.528C140.718 17.7387 141.486 17.1093 142.425 16.64C143.385 16.1493 144.526 15.904 145.849 15.904C147.086 15.904 148.163 16.1173 149.081 16.544C149.998 16.9493 150.755 17.5253 151.353 18.272C151.95 18.9973 152.398 19.8507 152.697 20.832C153.017 21.8133 153.177 22.8587 153.177 23.968C153.177 24.1173 153.166 24.3307 153.145 24.608C153.145 24.864 153.123 25.1413 153.081 25.44H142.297C142.403 26.5707 142.819 27.424 143.545 28C144.291 28.576 145.219 28.864 146.329 28.864C147.139 28.864 147.929 28.7253 148.697 28.448C149.465 28.1493 150.147 27.7333 150.745 27.2L152.729 29.888C151.982 30.464 151.278 30.9333 150.617 31.296C149.955 31.6587 149.262 31.9147 148.537 32.064C147.833 32.2347 147.022 32.32 146.105 32.32ZM149.241 23.456C149.283 23.2853 149.315 23.1147 149.337 22.944C149.379 22.7733 149.401 22.6133 149.401 22.464C149.401 22.016 149.315 21.6 149.145 21.216C148.974 20.8107 148.739 20.4587 148.441 20.16C148.142 19.8613 147.779 19.6373 147.353 19.488C146.947 19.3173 146.478 19.232 145.945 19.232C145.155 19.232 144.494 19.392 143.961 19.712C143.427 20.032 143.022 20.448 142.745 20.96C142.489 21.4507 142.329 21.9627 142.265 22.496H150.585L149.241 23.456Z" fill="black"/>
<rect width="40" height="40" rx="6" fill="#1D1D1D"/>
<path d="M11.2772 24.6452C11.2772 24.0038 10.7674 23.4839 10.1386 23.4839C9.50978 23.4839 9 24.0038 9 24.6452H11.2772ZM32 24.6452C32 24.0038 31.4902 23.4839 30.8614 23.4839C30.2326 23.4839 29.7228 24.0038 29.7228 24.6452H32ZM19.6022 25.4793C19.2155 25.985 19.3038 26.7147 19.7997 27.1093C20.2955 27.5036 21.011 27.4135 21.3978 26.9078L19.6022 25.4793ZM27.3186 19.1659C27.7053 18.6602 27.6169 17.9304 27.1211 17.5359C26.6253 17.1415 25.9098 17.2316 25.523 17.7373L27.3186 19.1659ZM19.6022 26.9078C19.989 27.4135 20.7045 27.5036 21.2003 27.1093C21.6962 26.7147 21.7845 25.985 21.3978 25.4793L19.6022 26.9078ZM15.477 17.7373C15.0902 17.2316 14.3748 17.1415 13.8789 17.5359C13.3831 17.9304 13.2947 18.6602 13.6814 19.1659L15.477 17.7373ZM19.3614 26.1935C19.3614 26.8349 19.8712 27.3548 20.5 27.3548C21.1288 27.3548 21.6386 26.8349 21.6386 26.1935H19.3614ZM21.6386 9.16129C21.6386 8.51993 21.1288 8 20.5 8C19.8712 8 19.3614 8.51993 19.3614 9.16129H21.6386ZM9 24.6452V26.1935H11.2772V24.6452H9ZM9 26.1935C9 29.3725 11.4709 32 14.5792 32V29.6774C12.7826 29.6774 11.2772 28.1456 11.2772 26.1935H9ZM14.5792 32H26.4208V29.6774H14.5792V32ZM26.4208 32C29.5291 32 32 29.3725 32 26.1935H29.7228C29.7228 28.1456 28.2174 29.6774 26.4208 29.6774V32ZM32 26.1935V24.6452H29.7228V26.1935H32ZM21.3978 26.9078L27.3186 19.1659L25.523 17.7373L19.6022 25.4793L21.3978 26.9078ZM21.3978 25.4793L15.477 17.7373L13.6814 19.1659L19.6022 26.9078L21.3978 25.4793ZM21.6386 26.1935V9.16129H19.3614V26.1935H21.6386Z" fill="#F1F1F1"/>
</svg>
